<svg width="511" height="419" viewBox="0 0 511 419" fill="none" xmlns="http://www.w3.org/2000/svg">
<g clip-path="url(#clip0_207_457)">
<path d="M437.606 345.303C427.172 365.665 413.937 385.358 397.192 403.181C396.82 403.584 396.444 403.976 396.065 404.375L356.391 385.593C356.633 385.19 356.899 384.737 357.186 384.242C374.228 355.083 477.107 177.212 473.856 136.927C474.235 140.249 486.429 250.129 437.606 345.303Z" fill="#E6E6E6"/>
<path d="M404.846 406.805C404.29 407.12 403.721 407.429 403.148 407.728L373.385 393.638C373.801 393.343 374.286 392.994 374.843 392.601C383.961 386.055 411.075 366.413 437.606 345.303C466.118 322.619 493.961 298.244 498.096 286.61C497.256 289.278 471.16 370.375 404.846 406.805Z" fill="#E6E6E6"/>
<path d="M439.061 99.2946H436.764V36.4005C436.764 26.7465 432.929 17.4879 426.102 10.6615C419.276 3.83504 410.017 0 400.363 0H267.108C257.454 0 248.195 3.83504 241.368 10.6615C234.542 17.4879 230.707 26.7465 230.707 36.4005V381.444C230.707 391.098 234.542 400.356 241.368 407.183C248.195 414.009 257.454 417.844 267.108 417.844H400.362C410.016 417.844 419.275 414.009 426.102 407.183C432.928 400.356 436.764 391.098 436.764 381.444V144.064H439.06L439.061 99.2946Z" fill="#3F3D56"/>
<path d="M401.831 9.46926H384.437C385.237 11.4305 385.543 13.5584 385.327 15.6655C385.111 17.7727 384.38 19.7944 383.199 21.5525C382.017 23.3106 380.421 24.7512 378.552 25.7472C376.682 26.7432 374.597 27.2642 372.478 27.2641H296.139C294.021 27.264 291.935 26.7429 290.066 25.747C288.197 24.751 286.602 23.3106 285.42 21.5528C284.239 19.7949 283.508 17.7735 283.292 15.6666C283.076 13.5597 283.381 11.432 284.181 9.47098H267.932C260.722 9.47098 253.808 12.335 248.709 17.4331C243.611 22.5312 240.747 29.4456 240.747 36.6554V381.19C240.747 388.4 243.611 395.315 248.709 400.413C253.808 405.511 260.722 408.375 267.932 408.375H401.826C409.036 408.375 415.95 405.511 421.049 400.413C426.147 395.315 429.011 388.4 429.011 381.19V36.6536C429.011 29.4439 426.147 22.5294 421.049 17.4314C415.95 12.3333 409.036 9.46924 401.826 9.46924L401.831 9.46926Z" fill="white"/>
<path d="M335.112 389.121C343.356 389.121 350.04 382.438 350.04 374.193C350.04 365.949 343.356 359.266 335.112 359.266C326.867 359.266 320.184 365.949 320.184 374.193C320.184 382.438 326.867 389.121 335.112 389.121Z" fill="#E6E6E6"/>
<path d="M274.552 236.143C273.14 236.143 271.992 237.453 271.992 239.064C271.992 240.674 273.14 241.985 274.552 241.985H395.206C396.618 241.985 397.766 240.674 397.766 239.064C397.766 237.453 396.618 236.143 395.206 236.143H274.552Z" fill="#E6E6E6"/>
<path d="M274.552 305.04C273.14 305.04 271.992 306.35 271.992 307.961C271.992 309.571 273.14 310.882 274.552 310.882H395.206C396.618 310.882 397.766 309.571 397.766 307.961C397.766 306.35 396.618 305.04 395.206 305.04H274.552Z" fill="#E6E6E6"/>
<path d="M274.552 253.67C273.14 253.67 271.992 254.98 271.992 256.591C271.992 258.201 273.14 259.512 274.552 259.512H326.47C327.881 259.512 329.029 258.201 329.029 256.591C329.029 254.98 327.881 253.67 326.47 253.67H274.552Z" fill="#E6E6E6"/>
<path d="M274.552 270.376C273.14 270.376 271.992 271.687 271.992 273.297C271.992 274.908 273.14 276.219 274.552 276.219H395.206C396.618 276.219 397.766 274.908 397.766 273.297C397.766 271.687 396.618 270.376 395.206 270.376H274.552Z" fill="#E6E6E6"/>
<path d="M274.552 287.903C273.14 287.903 271.992 289.214 271.992 290.824C271.992 292.435 273.14 293.746 274.552 293.746H326.47C327.881 293.746 329.029 292.435 329.029 290.824C329.029 289.214 327.881 287.903 326.47 287.903H274.552Z" fill="#E6E6E6"/>
<path d="M297.329 103.131H372.437C373.266 103.132 374.062 103.462 374.649 104.049C375.235 104.635 375.565 105.431 375.566 106.26V184.48C375.565 185.309 375.235 186.105 374.649 186.691C374.062 187.278 373.266 187.608 372.437 187.609H297.329C296.5 187.608 295.704 187.278 295.117 186.691C294.531 186.105 294.201 185.309 294.2 184.48V106.26C294.201 105.431 294.531 104.635 295.117 104.049C295.704 103.462 296.5 103.132 297.329 103.131Z" fill="#32324D"/>
<path d="M356.433 171.479C356.712 171.479 356.989 171.425 357.247 171.318C357.505 171.212 357.74 171.056 357.938 170.858C358.135 170.661 358.292 170.427 358.399 170.169C358.506 169.911 358.562 169.635 358.562 169.355C358.562 169.076 358.507 168.799 358.4 168.541C358.293 168.283 358.137 168.049 357.939 167.851C357.742 167.654 357.507 167.497 357.249 167.391C356.991 167.284 356.714 167.229 356.435 167.23H313.333C313.054 167.229 312.777 167.284 312.519 167.39C312.261 167.496 312.026 167.653 311.828 167.85C311.631 168.047 311.474 168.281 311.367 168.539C311.259 168.797 311.204 169.074 311.204 169.353C311.204 169.632 311.259 169.909 311.366 170.167C311.473 170.425 311.629 170.66 311.827 170.857C312.024 171.054 312.259 171.211 312.517 171.318C312.775 171.424 313.052 171.479 313.331 171.479H356.433Z" fill="white"/>
<path d="M356.433 158.961C356.996 158.961 357.537 158.737 357.935 158.339C358.334 157.941 358.558 157.4 358.558 156.837C358.558 156.273 358.334 155.733 357.935 155.334C357.537 154.936 356.996 154.712 356.433 154.712H313.333C312.77 154.712 312.229 154.935 311.831 155.334C311.432 155.732 311.208 156.272 311.208 156.836C311.207 157.399 311.431 157.94 311.829 158.338C312.227 158.737 312.768 158.961 313.331 158.961H356.433Z" fill="white"/>
<path d="M334.883 119.261C337.528 119.261 340.114 120.046 342.313 121.515C344.512 122.985 346.226 125.073 347.238 127.517C348.251 129.96 348.516 132.649 348 135.243C347.483 137.838 346.21 140.22 344.339 142.091C342.469 143.961 340.086 145.235 337.492 145.751C334.898 146.267 332.209 146.002 329.765 144.99C327.321 143.978 325.233 142.263 323.763 140.064C322.294 137.865 321.509 135.279 321.509 132.634C321.513 129.089 322.924 125.69 325.431 123.183C327.938 120.676 331.337 119.265 334.883 119.261Z" fill="white"/>
<path d="M167.727 406.091L162.484 397.623L161.436 402.462C161.253 403.31 161.069 404.171 160.899 405.025C159.41 403.747 157.825 402.565 156.275 401.43C151.514 397.958 146.756 394.481 142 391L143.489 399.68C144.407 405.025 145.366 410.479 147.638 415.366C147.889 415.92 148.161 416.467 148.454 417H170.583C170.761 416.505 170.884 415.991 170.951 415.469C170.956 415.435 170.958 415.401 170.957 415.366C171.304 412.051 169.482 408.928 167.727 406.091Z" fill="#F0F0F0"/>
<path d="M590.168 417.771L10.8319 418C10.6111 417.999 10.3995 417.906 10.2435 417.74C10.0876 417.574 10 417.349 10 417.114C10 416.88 10.0876 416.655 10.2435 416.489C10.3995 416.323 10.6111 416.229 10.8319 416.229L590.168 416C590.389 416.001 590.601 416.094 590.756 416.26C590.912 416.426 591 416.651 591 416.886C591 417.12 590.912 417.345 590.756 417.511C590.601 417.677 590.389 417.771 590.168 417.771Z" fill="#CACACA"/>
<path d="M192.933 287.862C218.3 287.862 238.865 267.298 238.865 241.931C238.865 216.564 218.3 196 192.933 196C167.565 196 147 216.564 147 241.931C147 267.298 167.565 287.862 192.933 287.862Z" fill="#32324D"/>
<path d="M211.332 222.656H174.533C172.907 222.658 171.349 223.305 170.199 224.455C169.049 225.605 168.402 227.163 168.4 228.789V255.073C168.402 256.699 169.049 258.258 170.199 259.407C171.348 260.557 172.907 261.204 174.533 261.206H211.332C212.958 261.204 214.517 260.557 215.666 259.407C216.816 258.258 217.463 256.699 217.465 255.073V228.789C217.463 227.163 216.816 225.604 215.666 224.455C214.516 223.305 212.958 222.658 211.332 222.656ZM211.332 226.161C211.551 226.162 211.77 226.19 211.983 226.246L192.937 241.438L174.002 226.215C174.177 226.179 174.355 226.161 174.533 226.161H211.332ZM211.332 257.701H174.533C173.837 257.7 173.168 257.423 172.676 256.931C172.183 256.438 171.906 255.77 171.905 255.073V229.025L191.835 245.049C192.145 245.298 192.531 245.435 192.929 245.436C193.327 245.436 193.714 245.301 194.025 245.053L213.96 229.151V255.073C213.959 255.77 213.682 256.438 213.189 256.931C212.697 257.423 212.028 257.7 211.332 257.701Z" fill="white"/>
<path d="M48.0446 396.874C33.9982 390.005 23.5358 376.186 25.1679 361C37.7693 371.53 54.9258 377.41 72.637 377.269C79.5353 377.214 87.261 376.49 92.2739 380.484C95.3931 382.97 96.8001 386.916 96.9779 390.849C97.1556 394.783 96.2315 398.763 95.3127 402.692L95.5921 403.623C79.0999 404.707 62.0909 403.742 48.0446 396.874Z" fill="#F2F2F2"/>
<path d="M25.7229 361.188C31.1224 372.143 40.4837 381.274 52.1177 386.619C54.6668 387.855 57.381 388.685 60.1684 389.078C63.0069 389.387 65.8755 388.997 68.5425 387.94C71.0709 386.996 73.5633 385.768 76.2449 385.394C77.5578 385.204 78.8942 385.29 80.1741 385.649C81.454 386.008 82.6512 386.632 83.694 387.483C86.1719 389.486 87.6499 392.259 88.9892 395.025C90.4763 398.096 91.9663 401.312 94.8782 403.405C95.231 403.659 94.7397 404.186 94.3874 403.933C89.3212 400.292 88.5902 393.707 84.5645 389.296C82.686 387.238 80.0789 385.746 76.9493 385.986C74.2127 386.196 71.6416 387.461 69.0886 388.436C66.4928 389.502 63.7074 389.978 60.9201 389.83C58.11 389.573 55.3584 388.845 52.7713 387.675C47.1463 385.241 41.9391 381.872 37.3534 377.7C32.2872 373.144 28.1049 367.623 25.0316 361.435C24.8451 361.056 25.5376 360.812 25.7229 361.188Z" fill="white"/>
<path d="M48.9159 384.484C47.3944 386.062 45.3512 387.184 43.0706 387.693C40.7901 388.203 38.3856 388.075 36.1916 387.327C35.7709 387.172 36.1144 386.63 36.5357 386.785C38.5769 387.485 40.8161 387.604 42.9384 387.126C45.0606 386.648 46.9592 385.597 48.3669 384.122C48.6626 383.806 49.2098 384.169 48.9159 384.484Z" fill="white"/>
<path d="M67.2925 387.733C67.0284 385.692 66.3417 383.731 65.2775 381.979C64.2133 380.227 62.7958 378.724 61.1184 377.568C60.7748 377.325 61.2546 376.822 61.5977 377.065C63.3407 378.271 64.8123 379.838 65.9155 381.664C67.0186 383.489 67.7282 385.532 67.9976 387.656C68.0464 388.061 67.341 388.136 67.2925 387.733Z" fill="white"/>
<path d="M71.6578 329C71.6998 329.261 71.7417 329.522 71.789 329.786C72.3712 333.288 73.2607 336.724 74.446 340.05C74.5331 340.309 74.6257 340.57 74.7207 340.825C77.7181 348.879 82.276 356.175 88.0997 362.243C90.4722 364.722 93.0311 366.992 95.7512 369.031C99.5428 371.876 103.919 374.656 106.318 378.49C106.573 378.886 106.8 379.299 107 379.729L96.1898 402.927C96.1382 402.97 96.0918 403.015 96.0401 403.059L95.6518 404C95.5015 403.904 95.3481 403.801 95.1978 403.704C95.1104 403.649 95.0253 403.588 94.9379 403.533C94.8804 403.494 94.8229 403.455 94.7684 403.424C94.7492 403.411 94.7301 403.398 94.7163 403.387C94.6618 403.355 94.6151 403.32 94.566 403.291C93.7066 402.717 92.8506 402.136 91.9978 401.548C91.9924 401.546 91.9924 401.546 91.9894 401.539C85.5052 397.042 79.4068 391.961 74.3963 386.098C74.2456 385.921 74.0894 385.743 73.9437 385.556C71.7166 382.921 69.7219 380.076 67.9849 377.055C67.0489 375.412 66.2034 373.713 65.4525 371.966C63.5254 367.454 62.3836 362.61 62.0822 357.667C61.4716 347.765 64.241 337.527 71.1259 329.601C71.3022 329.399 71.4761 329.201 71.6578 329Z" fill="#F2F2F2"/>
<path d="M71.4382 328.424C68.3393 340.84 69.4071 353.935 74.6539 365.078C75.7452 367.552 77.2484 369.804 79.0937 371.729C81.0702 373.622 83.5 374.92 86.1256 375.487C88.6404 376.109 91.3144 376.467 93.5722 377.663C94.68 378.243 95.6409 379.088 96.3761 380.13C97.1114 381.171 97.6002 382.38 97.8026 383.657C98.355 386.77 97.6544 389.975 96.854 393.097C95.9654 396.562 94.9844 400.153 95.8045 403.588C95.9038 404.004 95.1904 404.177 95.0912 403.762C93.6645 397.786 97.4151 391.744 97.2719 385.7C97.2051 382.879 96.2214 380.13 93.7146 378.567C91.5225 377.2 88.7656 376.829 86.2116 376.22C83.6312 375.697 81.2128 374.521 79.1673 372.796C77.2188 370.98 75.6194 368.792 74.4547 366.35C71.7849 360.97 70.0691 355.13 69.3901 349.111C68.5754 342.128 69.0394 335.047 70.7576 328.245C70.8647 327.816 71.5445 327.998 71.4382 328.424Z" fill="white"/>
<path d="M72.7366 361.595C68.4205 362.747 63.8418 361.369 62.032 358.391C61.8537 358.097 62.47 357.835 62.6485 358.128C64.3439 360.918 68.5811 362.17 72.6158 361.093C73.0403 360.98 73.1588 361.482 72.7366 361.595Z" fill="white"/>
<path d="M85.0491 375.473C86.0884 373.573 86.7981 371.436 87.1353 369.193C87.4726 366.95 87.4302 364.647 87.0107 362.424C86.924 361.996 87.5567 361.817 87.6433 362.245C88.0757 364.56 88.1154 366.957 87.7602 369.291C87.4049 371.625 86.6621 373.847 85.5768 375.822C85.3643 376.224 84.8377 375.874 85.0491 375.473Z" fill="white"/>
<path d="M70.2733 343.467C71.1056 343.38 71.9069 343.127 72.6201 342.726C73.3333 342.324 73.9409 341.783 74.3997 341.142C74.6168 340.822 75.1665 341.099 74.9507 341.416C74.4407 342.123 73.7688 342.72 72.9816 343.165C72.1945 343.611 71.3108 343.894 70.392 343.996C70.2096 344.016 70.0394 343.957 70.0024 343.802C69.9922 343.725 70.0146 343.647 70.065 343.585C70.1154 343.523 70.1899 343.48 70.2733 343.467Z" fill="white"/>
<path d="M105 175.307L123.297 196.207L165.883 213L171 202.773L138.229 184.027C138.229 184.027 123.454 167.421 114.688 164L105 175.307Z" fill="#A0616A"/>
<path d="M119 164.792L105.466 176.761L105.403 176.778C99.1103 178.387 90.0225 170.953 83.5069 164.434C81.3603 162.282 80.1093 159.395 80.0068 156.355C79.9044 153.315 80.9582 150.349 82.9551 148.058C84.4396 146.377 86.3638 145.146 88.5102 144.504C90.6566 143.861 92.9396 143.833 95.1013 144.422L106.102 147.461L119 164.792Z" fill="#3F3D56"/>
<path d="M134.002 408L143.487 407.999L148 371L134 371.001L134.002 408Z" fill="#A0616A"/>
<path d="M131 405.103L133.619 405.103L143.843 401L149.323 405.102H149.323C152.42 405.102 155.39 406.316 157.58 408.477C159.77 410.638 161 413.569 161 416.624V416.999L131.001 417L131 405.103Z" fill="#2F2E41"/>
<path d="M93.0017 408L102.487 407.999L107 371L93 371.001L93.0017 408Z" fill="#A0616A"/>
<path d="M90 405.103L92.6187 405.103L102.843 401L108.323 405.102H108.323C111.42 405.102 114.39 406.316 116.58 408.477C118.77 410.638 120 413.569 120 416.624V416.999L90.0005 417L90 405.103Z" fill="#2F2E41"/>
<path d="M79.2109 249.866C79.2109 249.866 78.1434 263.119 80.812 275.821C83.4807 288.522 83.4807 324.294 83.4807 324.294L89.3517 394L106.965 392.343L111.768 275.821L128.847 315.03L127.246 320.552L129.379 321.933C129.379 321.933 127.78 332.701 128.847 332.701C129.915 332.701 132.583 334.358 132.583 334.358L130.449 391.239L148.595 390.687L155 310.612L148.062 264.776L147.528 255.94L145.126 256.042L143.903 252.351L141.657 246L79.2109 249.866Z" fill="#2F2E41"/>
<path d="M77.5782 252L77.4812 251.861C72.3011 244.446 80.0919 226.628 81.2669 224.045L76.3178 222.403L77.4323 212.717L77.9603 208.399L74.1777 204.531L74.1671 204.435L71.9902 184.96L68.8252 172.025C67.6326 167.135 67.7343 162.009 69.1197 157.172C70.505 152.336 73.1243 147.963 76.7084 144.504L84.0243 137.451L92.9155 124H107.253L112.17 133.495C116.936 134.621 121.165 137.421 124.119 141.408C127.074 145.394 128.567 150.314 128.339 155.31L127.225 180.211L131.587 211.216L131.589 216.827L136.498 222.404L135.426 227.884L139.162 229.521L140.811 237.391C141.494 238.312 146 244.455 146 246.135C146 246.387 145.818 246.631 145.427 246.901C142.357 249.027 125.384 253.361 117.873 250.288C109.871 247.017 78.0639 251.924 77.7434 251.974L77.5782 252Z" fill="#3F3D56"/>
<path d="M194 417C194 417.131 193.984 417.261 193.952 417.382C193.92 417.503 193.874 417.613 193.814 417.706C193.755 417.799 193.685 417.873 193.608 417.923C193.531 417.973 193.448 418 193.364 418H42.6399C42.4702 418 42.3074 417.895 42.1874 417.707C42.0674 417.52 42 417.265 42 417C42 416.735 42.0674 416.48 42.1874 416.293C42.3074 416.105 42.4702 416 42.6399 416H193.36C193.529 415.999 193.692 416.103 193.812 416.29C193.932 416.476 193.999 416.73 194 416.994V417Z" fill="#CCCCCC"/>
<path d="M102 119C112.493 119 121 110.493 121 100C121 89.5066 112.493 81 102 81C91.5066 81 83 89.5066 83 100C83 110.493 91.5066 119 102 119Z" fill="#A0616A"/>
<path d="M104.239 120C101.332 119.969 98.4323 119.68 95.5722 119.135C92.7407 118.456 86.4934 113.426 84.7907 110.455C83.5258 108.248 82.7665 104.833 82.3523 102.358C81.7929 99.0814 81.9007 95.7194 82.6687 92.4893C83.4367 89.2592 84.8477 86.233 86.8104 83.6067C87.5671 82.5065 88.5952 81.6396 89.7862 81.0978C89.8915 81.0581 89.9998 81.0234 90.1091 80.9941C91.8354 80.5705 93.4007 79.6194 94.604 78.2628C94.8377 77.9882 95.09 77.7314 95.3591 77.4945C96.709 76.3693 98.2956 75.5926 99.9891 75.2279C102.725 74.5439 106.639 75.4011 111.621 77.7779C114.124 78.9721 116.902 78.6389 119.044 78.2152C119.164 78.1944 119.287 78.2067 119.401 78.2509C119.515 78.295 119.616 78.3695 119.694 78.4669C120.578 79.3767 121.76 79.9045 123.002 79.9441C123.763 79.9994 124.534 81.118 125.464 82.5748C125.675 82.9054 125.921 83.2914 126.099 83.5269L126.135 83.0846L126.553 83.5903C127.211 84.3851 127.665 85.3402 127.872 86.3667C128.08 87.3932 128.034 88.4576 127.74 89.4609C127.446 90.4642 126.913 91.3737 126.19 92.1048C125.468 92.8358 124.579 93.3646 123.608 93.6419C122.837 93.8334 122.049 93.9425 121.257 93.9674C120.777 93.9994 120.28 94.0325 119.803 94.1055C118.27 94.3895 116.835 95.0824 115.636 96.1164C114.438 97.1505 113.517 98.4904 112.965 100.005C112.834 100.356 112.628 100.67 112.363 100.924C112.097 101.178 111.779 101.365 111.433 101.471C111.087 101.576 110.722 101.598 110.367 101.534C110.011 101.469 109.675 101.321 109.383 101.099C108.899 100.685 108.325 100.399 107.711 100.265C107.097 100.132 106.461 100.155 105.857 100.333C105.332 100.618 104.917 101.083 104.683 101.649C104.399 102.279 103.941 102.807 103.368 103.165C101.413 104.149 101.167 108.732 101.764 112.574C102.341 116.278 103.595 118.98 104.814 119.144C105.752 119.271 105.858 119.344 105.922 119.519L105.979 119.675L105.87 119.818C105.763 119.944 105.142 120 104.239 120Z" fill="#2F2E41"/>
<path d="M108 175.232L121.124 200.288L159.42 228L167 219.564L138.947 192.642C138.947 192.642 128.283 172.669 120.392 167L108 175.232Z" fill="#A0616A"/>
<path d="M164.5 232C168.09 232 171 228.866 171 225C171 221.134 168.09 218 164.5 218C160.91 218 158 221.134 158 225C158 228.866 160.91 232 164.5 232Z" fill="#A0616A"/>
<path d="M109.181 179L101 158.438L103.959 147.075C104.548 144.847 105.72 142.835 107.343 141.268C108.966 139.7 110.976 138.639 113.145 138.205C116.088 137.637 119.128 138.26 121.649 139.95C124.171 141.639 125.985 144.268 126.727 147.305C128.967 156.516 130.688 168.492 126.162 173.231L126.116 173.279L109.181 179Z" fill="#3F3D56"/>
</g>
<defs>
<clipPath id="clip0_207_457">
<rect width="511" height="419" fill="white"/>
</clipPath>
</defs>
</svg>
